<svg version="1.1" id="Layer_1" xmlns="http://www.w3.org/2000/svg" xmlns:xlink="http://www.w3.org/1999/xlink" x="0px" y="0px"
	 width="100%" viewBox="0 0 800 800" enable-background="new 0 0 800 800" xml:space="preserve">
<path fill="#000000" opacity="1.000000" stroke="none" 
	d="
M376.408691,80.530212 
	C366.233459,62.327774 356.273712,44.424728 346.219940,26.574652 
	C344.717773,23.907612 345.157166,22.309502 347.467255,20.213329 
	C352.513702,15.634129 357.551392,15.013718 364.251617,16.754740 
	C386.782745,22.609373 409.455933,27.891008 432.322815,32.421371 
	C447.127075,35.354370 461.497192,40.450958 476.096588,44.451366 
	C507.233582,52.983265 538.393677,61.431011 569.542175,69.920952 
	C571.147705,70.358566 572.711731,71.181717 574.332031,71.294510 
	C586.280823,72.126259 592.203247,79.412346 597.389221,89.627022 
	C620.688110,135.517609 644.695435,181.049408 668.565002,226.648941 
	C678.066467,244.800201 687.876221,262.790009 697.534668,280.859161 
	C698.555054,282.768066 699.643250,284.659210 700.452209,286.658813 
	C702.165955,290.894684 700.866028,293.559448 696.310242,294.134033 
	C693.015503,294.549561 691.960632,296.023956 692.218140,299.012360 
	C692.990784,307.979767 693.329102,316.944427 692.189026,325.912323 
	C691.869690,328.424072 693.249939,330.304169 694.567627,332.282867 
	C698.405457,338.046173 698.089417,342.819366 693.076660,347.458069 
	C689.427612,350.834900 688.810730,354.810181 689.343811,359.276520 
	C690.493469,368.908386 692.326904,378.395111 696.963379,387.038513 
	C698.768677,390.403992 697.681396,392.170502 694.756897,393.885132 
	C683.803467,400.307220 678.692017,399.046539 671.984680,388.079895 
	C665.786072,377.945129 666.906555,362.359894 674.915039,352.945831 
	C677.086792,350.392975 677.658447,348.852905 675.715393,345.767120 
	C671.111755,338.456268 672.075806,333.645020 678.513855,327.761780 
	C679.661011,326.713501 680.558228,325.667999 680.740723,324.032501 
	C681.778870,314.728058 681.748291,305.433533 680.736389,296.128235 
	C680.456177,293.551544 678.840088,292.239807 676.638184,291.671722 
	C661.825989,287.849976 647.002441,284.070374 632.157104,280.379822 
	C629.090759,279.617584 626.903809,280.799591 625.180054,283.709290 
	C619.067627,294.027466 612.761963,304.233368 606.391418,314.395203 
	C604.263367,317.789642 603.535095,321.056213 604.113220,325.188110 
	C610.255371,369.088470 600.469788,410.144379 581.418213,449.478973 
	C571.274719,470.421722 557.887939,489.356415 544.432861,508.184174 
	C525.663696,534.448120 513.447327,563.550842 505.009216,594.483093 
	C503.958466,598.334900 504.848267,600.813843 507.691620,603.221191 
	C511.404877,606.364990 514.422424,610.095703 516.652710,614.483276 
	C523.259155,627.479919 520.237549,640.732971 508.596649,649.543457 
	C507.162140,650.629211 505.405518,651.387939 504.300720,653.665771 
	C510.041626,660.627014 514.937561,668.485168 513.873047,678.165039 
	C512.810791,687.824768 507.719788,695.270020 498.735535,700.087524 
	C500.817535,703.997742 503.008759,707.490112 504.612915,711.234070 
	C511.433075,727.151794 503.980743,743.525696 487.577026,749.044006 
	C483.125336,750.541626 478.611908,751.564392 473.867676,751.315430 
	C469.972748,751.111023 467.363892,752.654907 465.663666,756.425659 
	C456.346771,777.088440 439.390747,786.144897 417.566254,787.124573 
	C389.317749,788.392639 365.685425,778.609558 347.466827,756.688843 
	C344.795532,753.474670 341.924957,752.069763 337.629883,752.110474 
	C319.316620,752.284424 304.872375,741.445374 299.405212,724.179871 
	C296.967896,716.482666 297.943054,709.244873 302.093140,702.621460 
	C304.448456,698.862488 304.356354,696.789734 300.915100,693.594177 
	C288.921051,682.456482 286.991272,665.582336 295.802551,653.321838 
	C297.147034,651.451111 298.798676,649.801086 300.337311,648.015198 
	C299.701569,645.364624 297.579163,643.838928 296.056396,641.934448 
	C282.403931,624.858582 285.670715,606.786194 304.514282,595.723816 
	C306.554138,594.526306 307.881897,593.314941 307.523956,590.637085 
	C304.301483,566.527222 300.326172,542.595093 292.482666,519.450378 
	C284.792633,496.758514 273.244690,475.975708 261.727509,455.099304 
	C243.932114,422.842743 229.758530,389.074097 224.403183,352.334473 
	C215.527863,291.446472 230.213730,237.069855 272.403564,191.629944 
	C294.476593,167.856552 322.157837,152.265625 353.703064,144.001450 
	C356.930908,143.155792 358.896790,141.105637 360.493469,138.538376 
	C368.147675,126.231506 375.713898,113.869980 383.355103,101.555016 
	C385.016602,98.877213 385.106110,96.235580 383.617310,93.520836 
	C381.294861,89.285858 378.936676,85.070465 376.408691,80.530212 
M312.162231,518.442261 
	C312.833557,520.673462 313.589233,522.883179 314.163025,525.139221 
	C319.372437,545.621582 323.699005,566.295044 327.012482,587.163452 
	C327.597595,590.848450 329.106995,591.984070 332.512970,591.792847 
	C338.660583,591.447876 344.816650,591.060608 350.968994,591.063416 
	C354.709900,591.065125 356.007050,589.624634 355.776917,585.991028 
	C354.893768,572.047791 354.564209,558.057495 352.236542,544.241089 
	C347.197723,514.332520 341.080475,484.686462 330.512482,456.139526 
	C329.589722,453.646851 329.389465,451.290619 331.597534,449.254517 
	C343.295258,438.468109 352.486847,425.529602 362.421539,413.234650 
	C387.367035,382.362732 399.789124,346.801971 401.764954,307.390259 
	C401.952728,303.644897 403.021027,301.220856 407.342285,301.639862 
	C411.057098,302.000092 414.476013,301.832184 414.367279,307.547394 
	C413.999908,326.859253 413.274292,346.145905 412.406036,365.442963 
	C411.201294,392.217987 410.760315,419.029022 410.184814,445.828796 
	C410.096527,449.941162 409.043854,452.172668 404.674744,453.064758 
	C398.370178,454.352081 393.974365,458.273560 392.168488,464.655945 
	C389.181396,475.212921 397.725372,486.419250 410.065704,488.186340 
	C418.240112,489.356873 424.573151,486.432098 428.276520,479.776123 
	C431.925262,473.218323 431.073181,466.974182 425.639526,460.439026 
	C423.350250,457.685638 420.530823,455.585602 417.170471,454.447083 
	C414.143799,453.421539 413.271027,451.792114 413.414246,448.506622 
	C414.364349,426.715363 415.084229,404.913513 415.778564,383.111877 
	C416.261047,367.963837 416.224518,352.789825 417.103668,337.667175 
	C417.684296,327.679596 417.692596,317.695679 418.063019,307.714111 
	C418.198059,304.074615 419.442932,302.644501 423.328094,303.386993 
	C430.119232,304.684784 431.191803,305.546570 430.915649,313.680542 
	C429.851654,345.018066 437.492615,374.341705 450.741180,402.487335 
	C460.998505,424.278351 473.531219,444.682068 487.647766,464.137726 
	C490.452423,468.003113 492.007019,471.430908 489.900299,476.446564 
	C480.675781,498.408539 473.000885,520.918762 466.904114,543.968689 
	C462.962708,558.869873 462.297791,574.054382 461.909088,589.331787 
	C466.756531,591.014465 471.464996,589.775208 476.061798,590.258240 
	C485.301392,591.229004 485.548615,591.254456 488.015778,582.144897 
	C497.178253,548.314331 512.243774,517.398254 532.710693,488.957397 
	C542.434387,475.445343 552.033020,461.796265 560.249939,447.268372 
	C580.879578,410.794220 588.742737,371.544617 585.632812,329.931519 
	C585.188538,323.986481 583.184692,318.796570 579.417725,313.955750 
	C559.107666,287.855896 537.099182,263.436951 512.151428,241.591415 
	C476.182709,210.095474 437.636444,182.848465 393.017700,164.813538 
	C381.400482,160.117859 370.771881,157.168198 357.682465,161.939758 
	C333.391968,170.794525 310.644745,181.674637 292.066681,199.873276 
	C247.350052,243.676666 234.745087,297.378448 244.815002,357.553558 
	C250.235931,389.947693 263.252594,419.645325 278.988678,448.280884 
	C291.336731,470.751068 304.071228,493.069611 312.162231,518.442261 
M400.489166,111.937286 
	C394.808594,121.614433 388.353973,130.854279 383.239380,141.233017 
	C468.376343,173.808014 535.124695,229.694412 591.773438,299.832367 
	C597.849426,289.826538 603.294800,280.301239 609.327393,271.163605 
	C612.280640,266.690277 612.022766,263.051758 609.907715,258.350739 
	C592.224243,219.045425 566.462463,185.916092 533.419250,158.488403 
	C501.128479,131.685333 465.129974,111.676292 424.189209,101.294968 
	C409.139832,97.478920 408.836395,97.725754 400.489166,111.937286 
M665.386963,260.054565 
	C637.426025,206.456497 609.391846,152.896347 581.603516,99.208939 
	C578.386292,92.993340 574.493530,89.282883 567.379822,87.528481 
	C512.274963,73.938309 457.884766,57.694096 403.135315,42.776005 
	C393.581635,40.172832 384.003418,37.659859 374.043915,35.000385 
	C374.211884,36.365406 374.132446,36.918594 374.348969,37.306633 
	C382.222992,51.416950 390.141602,65.502426 398.004028,79.619179 
	C399.187439,81.743973 400.992554,82.129524 403.094879,81.827957 
	C415.346649,80.070457 426.938446,83.282333 438.394409,86.811783 
	C487.112915,101.821434 529.172729,127.857124 565.550903,163.466827 
	C589.990356,187.390045 610.775330,214.027695 623.838806,245.676300 
	C628.841064,257.795135 634.842468,264.969238 648.194397,265.878510 
	C655.336243,266.364868 662.359497,268.593109 670.536865,270.259521 
	C668.545410,266.299133 667.140320,263.504883 665.386963,260.054565 
M416.500000,638.897339 
	C426.329529,638.921875 436.159058,638.976868 445.988556,638.963440 
	C459.482056,638.945007 472.982788,639.129517 486.466492,638.741394 
	C496.248718,638.459778 502.234253,631.547546 500.598358,623.364990 
	C499.381958,617.280579 493.601501,612.281799 486.196716,611.311340 
	C481.914948,610.750244 477.569031,610.406311 473.253571,610.421082 
	C452.766266,610.491028 432.273682,611.105530 411.793915,610.796875 
	C381.979095,610.347595 352.166779,610.232361 322.351593,610.273132 
	C313.431458,610.285400 307.765106,614.832886 307.289337,622.209534 
	C306.815155,629.561340 312.711792,636.725403 320.597229,637.835815 
	C325.360992,638.506531 330.215485,638.777344 335.030914,638.796448 
	C361.853668,638.902832 388.676910,638.877258 416.500000,638.897339 
M380.500031,658.297668 
	C362.841431,658.321167 345.182739,658.322998 327.524323,658.394470 
	C325.210999,658.403809 322.848785,658.535583 320.596741,659.018616 
	C315.536743,660.104004 311.572418,662.836975 310.387207,668.114319 
	C309.125000,673.734924 310.738312,678.681946 315.266266,682.460938 
	C319.582306,686.063049 324.645081,687.128540 330.170746,687.116272 
	C379.148010,687.007996 428.125458,686.979248 477.102844,686.928955 
	C479.938141,686.926086 482.748688,686.891479 485.484558,685.909607 
	C490.466248,684.121704 493.688568,680.682007 494.504181,675.511841 
	C495.323395,670.319153 493.158325,666.069031 489.063293,662.839844 
	C485.663086,660.158569 481.718750,659.045593 477.431091,658.948547 
	C469.609375,658.771423 461.788971,658.419617 453.967072,658.389404 
	C429.811646,658.296021 405.655762,658.320007 380.500031,658.297668 
M321.466949,728.002319 
	C326.286499,732.865845 332.302094,733.990173 338.876434,733.974548 
	C382.860474,733.869751 426.844788,733.871582 470.829010,733.834534 
	C473.659302,733.832153 476.486725,733.880615 479.231934,732.938110 
	C486.880310,730.312012 490.259186,723.238708 487.183105,715.825073 
	C483.728302,707.498657 476.649445,705.273804 468.486328,705.269104 
	C427.667236,705.245605 386.848145,705.272034 346.029053,705.287476 
	C341.364197,705.289246 336.680695,705.071899 332.038025,705.404846 
	C319.010284,706.339172 313.746918,716.966125 321.466949,728.002319 
z"/>
</svg>