<svg width="32" height="32" viewBox="0 0 32 32" fill="none" xmlns="http://www.w3.org/2000/svg">
  <!-- Background circle -->
  <circle cx="16" cy="16" r="16" fill="#0F4776"/>
  
  <!-- Lightbulb outline -->
  <path d="M8 12C8 8 10 6 12 6C14 6 16 8 16 10C16 8 18 6 20 6C22 6 24 8 24 12C24 16 22 18 20 20L20 22C20 23 19 24 18 24H14C13 24 12 23 12 22L12 20C10 18 8 16 8 12Z" stroke="#FFB84D" stroke-width="1.5" fill="none"/>
  
  <!-- Graduation cap -->
  <path d="M6 10L16 6L26 10L16 14L6 10Z" fill="#FFB84D"/>
  <path d="M16 14L16 12" stroke="#FFB84D" stroke-width="1"/>
  <path d="M18 12L20 10" stroke="#FFB84D" stroke-width="1"/>
  
  <!-- Pen nib inside lightbulb -->
  <path d="M16 8L18 10L16 12L14 10L16 8Z" fill="#FFB84D"/>
  <circle cx="16" cy="10" r="1" fill="#0F4776"/>
  
  <!-- Lightbulb base lines -->
  <line x1="12" y1="20" x2="20" y2="20" stroke="#FFB84D" stroke-width="1"/>
  <line x1="13" y1="21" x2="19" y2="21" stroke="#FFB84D" stroke-width="1"/>
  <line x1="14" y1="22" x2="18" y2="22" stroke="#FFB84D" stroke-width="1"/>
  
  <!-- PPA Text -->
  <text x="20" y="22" font-family="Arial, sans-serif" font-size="8" font-weight="bold" fill="#FFB84D">PPA</text>
</svg>
