<svg version="1.1" id="Layer_1" xmlns="http://www.w3.org/2000/svg" xmlns:xlink="http://www.w3.org/1999/xlink" x="0px" y="0px"
	 width="100%" viewBox="0 0 4500 4500" enable-background="new 0 0 4500 4500" xml:space="preserve">
<path fill="#000000" opacity="1.000000" stroke="none" 
	d="
M2988.000000,4504.000000 
	C1992.000000,4504.000000 998.000000,4504.000000 4.000000,4504.000000 
	C4.000000,3004.000000 4.000000,1504.000000 4.000000,4.000001 
	C1504.000000,4.000000 3004.000000,4.000000 4504.000000,4.000000 
	C4504.000000,1504.000000 4504.000000,3004.000000 4504.000000,4504.000000 
	C3999.333252,4504.000000 3494.666748,4504.000000 2988.000000,4504.000000 
M1580.272461,1162.456177 
	C1474.907959,1133.504150 1369.544556,1104.548340 1264.175537,1075.613037 
	C1259.683472,1074.379517 1255.164185,1073.221924 1250.615356,1072.220947 
	C1211.578247,1063.629150 1172.497559,1055.232300 1133.500977,1046.460938 
	C1112.053101,1041.636719 1090.741211,1036.206909 1069.369507,1031.044678 
	C1064.182617,1029.791870 1058.840942,1027.955444 1053.909180,1031.303955 
	C1048.414307,1035.034668 1042.844971,1038.832520 1038.121216,1043.435547 
	C1036.216064,1045.292114 1035.315308,1049.653076 1035.999146,1052.358398 
	C1037.113647,1056.768188 1039.763550,1060.831665 1042.009888,1064.906616 
	C1053.269043,1085.332031 1064.551758,1105.744873 1075.931641,1126.103149 
	C1092.838867,1156.349976 1109.758179,1186.590576 1126.835938,1216.741211 
	C1132.515625,1226.768799 1133.981934,1236.228516 1127.368774,1246.724609 
	C1108.897583,1276.040894 1090.914673,1305.664917 1072.768921,1335.185791 
	C1067.273315,1344.126587 1059.655762,1349.089355 1049.236938,1352.016479 
	C968.367432,1374.737427 898.161011,1416.223145 842.574280,1479.066772 
	C759.322937,1573.186401 722.106384,1684.531372 726.491821,1810.013306 
	C728.894653,1878.765869 745.090942,1944.388550 769.901978,2008.208496 
	C790.235107,2060.510254 815.066711,2110.568359 843.345398,2159.010498 
	C876.805542,2216.328369 901.656921,2277.229736 917.954956,2341.607422 
	C927.295227,2378.502197 932.474670,2416.098145 938.156494,2453.660889 
	C940.400269,2468.494385 937.792664,2478.366943 923.395081,2483.849854 
	C922.174194,2484.314697 921.095093,2485.190918 920.005188,2485.954834 
	C892.938232,2504.930420 883.098999,2538.960449 896.744568,2569.229004 
	C900.800903,2578.227051 907.047546,2586.253662 912.453735,2594.620117 
	C915.259583,2598.962402 918.422302,2603.073975 921.843262,2607.879150 
	C918.084534,2612.752930 914.908691,2616.886230 911.716858,2621.007324 
	C898.240051,2638.406982 893.825012,2657.799561 898.593140,2679.345459 
	C902.156555,2695.447510 910.192566,2708.988770 921.468018,2720.803955 
	C925.057678,2724.565430 928.503845,2728.463379 932.341187,2732.654785 
	C929.225342,2738.640137 926.427368,2743.849121 923.779907,2749.133545 
	C917.323425,2762.020996 914.565186,2775.617432 917.431580,2789.856689 
	C923.440063,2819.704346 939.156677,2842.442139 966.913574,2856.198242 
	C980.288208,2862.826416 994.483459,2866.879150 1009.256531,2866.534180 
	C1023.250549,2866.207764 1032.967651,2871.521729 1041.878662,2882.014648 
	C1051.307129,2893.116699 1061.762817,2903.749512 1073.301636,2912.586914 
	C1124.670532,2951.930420 1182.960693,2962.147461 1245.467163,2949.986328 
	C1279.913940,2943.284668 1306.284424,2923.860840 1324.292236,2893.508789 
	C1326.671021,2889.499023 1329.450806,2885.580566 1330.983398,2881.244629 
	C1334.876709,2870.229736 1342.906738,2865.878906 1353.912354,2865.418457 
	C1358.569458,2865.223633 1363.237793,2864.923340 1367.860107,2864.344482 
	C1382.678955,2862.489014 1396.224854,2857.366455 1408.357910,2848.509033 
	C1428.460693,2833.833740 1436.730225,2813.878418 1434.815796,2789.444580 
	C1433.864014,2777.296875 1429.817261,2766.094727 1423.742432,2755.518311 
	C1420.851685,2750.485107 1416.006104,2746.112305 1417.188965,2738.486816 
	C1420.163086,2735.850098 1423.827515,2733.002930 1427.007324,2729.690186 
	C1432.056641,2724.430176 1437.692383,2719.425293 1441.485107,2713.321533 
	C1456.787109,2688.695312 1454.786621,2663.956787 1440.265625,2639.684326 
	C1436.604126,2633.564209 1432.417969,2627.758057 1427.997070,2621.090088 
	C1433.997925,2616.088135 1439.141968,2612.006104 1444.058960,2607.666992 
	C1467.927246,2586.603760 1474.305908,2556.550781 1460.322754,2527.908203 
	C1456.578735,2520.239014 1451.034180,2513.377930 1445.816650,2506.525879 
	C1442.611450,2502.316406 1438.568115,2498.712891 1434.704590,2495.044434 
	C1429.392212,2490.000000 1427.382690,2484.223877 1429.422729,2476.993652 
	C1431.411499,2469.945312 1432.445679,2462.583496 1434.906006,2455.720215 
	C1445.919556,2424.998047 1456.645142,2394.147217 1468.717529,2363.837891 
	C1480.829956,2333.427734 1496.876587,2304.965088 1515.567871,2278.028809 
	C1532.283569,2253.939453 1548.848145,2229.744873 1565.447388,2205.574707 
	C1600.691528,2154.256104 1630.366455,2100.018799 1650.935181,2041.092529 
	C1678.159668,1963.098389 1688.357544,1883.169800 1677.211182,1800.981323 
	C1675.979736,1791.900879 1677.448486,1783.951904 1682.248535,1776.226196 
	C1698.073608,1750.754639 1713.693848,1725.156128 1729.436890,1699.633301 
	C1730.830811,1697.373779 1732.132690,1694.698242 1734.207886,1693.302124 
	C1737.337280,1691.196899 1740.986084,1689.390259 1744.648804,1688.696289 
	C1747.766968,1688.105469 1751.307373,1688.902832 1754.505859,1689.704346 
	C1788.758301,1698.288696 1822.965698,1707.053467 1857.219360,1715.633179 
	C1866.885010,1718.054199 1871.656738,1723.914551 1872.650513,1733.864136 
	C1874.510498,1752.485229 1875.107422,1771.024292 1873.245117,1789.709229 
	C1872.349731,1798.691772 1870.316650,1805.998047 1863.021973,1812.390869 
	C1852.276245,1821.807739 1851.250488,1834.245728 1856.526245,1847.176147 
	C1858.742798,1852.608521 1861.462891,1857.835449 1864.002075,1863.258301 
	C1859.962769,1868.742310 1856.194580,1873.374146 1852.947632,1878.346558 
	C1834.183716,1907.081055 1836.534424,1945.395142 1858.402100,1969.420898 
	C1872.879761,1985.327637 1879.523560,1986.366821 1898.311035,1975.909668 
	C1912.354858,1968.092773 1913.769775,1965.470215 1906.958496,1950.904175 
	C1897.547363,1930.777710 1892.717285,1909.401245 1891.094849,1887.246704 
	C1890.181030,1874.767090 1891.877075,1863.772705 1902.135498,1854.710938 
	C1911.306396,1846.609985 1910.539673,1835.741821 1906.412231,1825.140015 
	C1905.218628,1822.074219 1903.181641,1819.326050 1901.445312,1816.484985 
	C1898.193237,1811.163696 1896.927246,1805.456543 1897.808960,1799.264038 
	C1900.552979,1779.994141 1899.730591,1760.722290 1897.960571,1741.431152 
	C1897.476196,1736.151367 1897.113892,1730.708618 1901.187012,1726.351440 
	C1923.193970,1717.708618 1923.864746,1715.886108 1912.808350,1694.866577 
	C1912.498047,1694.276733 1912.187378,1693.687256 1911.877441,1693.097290 
	C1839.662476,1555.661865 1767.442871,1418.229004 1695.236694,1280.788940 
	C1680.671265,1253.064819 1665.742310,1225.520142 1651.796387,1197.487183 
	C1644.979248,1183.784180 1635.148560,1175.802002 1620.171509,1172.846191 
	C1607.776489,1170.399902 1595.663208,1166.525879 1580.272461,1162.456177 
M3071.700928,2645.401855 
	C3034.848633,2734.000977 2997.989258,2822.597168 2961.155518,2911.203613 
	C2957.318848,2920.433350 2953.562744,2929.697998 2949.915039,2939.003662 
	C2948.482178,2942.659180 2946.870850,2946.478271 2951.223633,2951.696045 
	C2956.356445,2952.136475 2962.857422,2953.159668 2969.361328,2953.178223 
	C3017.346436,2953.314941 3065.332275,2953.285400 3113.317871,2953.210205 
	C3119.905273,2953.199707 3126.705078,2953.860107 3134.222168,2948.878662 
	C3136.966797,2942.362305 3140.456787,2934.490967 3143.622070,2926.491699 
	C3160.050049,2884.977783 3176.321045,2843.401367 3192.800781,2801.908447 
	C3200.896729,2781.524170 3201.047607,2781.359863 3223.581299,2781.336670 
	C3315.553711,2781.241211 3407.526123,2781.245605 3499.498535,2781.328369 
	C3522.775879,2781.349365 3522.943115,2781.477783 3531.503662,2803.045410 
	C3548.220703,2845.161621 3564.696289,2887.373779 3581.357910,2929.512207 
	C3584.262695,2936.858887 3587.587891,2944.039062 3590.653076,2951.143311 
	C3596.539062,2951.943115 3601.114258,2953.095215 3605.692383,2953.105957 
	C3661.008545,2953.234619 3716.325439,2953.264404 3771.641113,2953.083740 
	C3776.733643,2953.066895 3781.820557,2951.429688 3786.414551,2950.630859 
	C3786.938721,2948.003174 3787.774658,2946.492432 3787.362549,2945.498291 
	C3677.754150,2680.777832 3568.065186,2416.090576 3458.314453,2151.429199 
	C3456.303467,2146.580078 3453.529053,2142.047852 3450.730225,2136.631348 
	C3431.875732,2134.890381 3413.259033,2135.831055 3394.690918,2135.681152 
	C3376.697510,2135.535889 3358.696533,2135.375000 3340.708740,2135.726074 
	C3322.181152,2136.087646 3303.537354,2134.047607 3285.552490,2137.258545 
	C3283.773193,2139.443604 3282.065430,2140.791992 3281.332764,2142.547363 
	C3211.780273,2309.198975 3142.302246,2475.881348 3071.700928,2645.401855 
M1964.549561,2678.436279 
	C1993.146729,2676.046143 2021.433594,2672.071533 2048.999023,2663.611328 
	C2148.220215,2633.159424 2221.436279,2551.386230 2237.894531,2450.867432 
	C2244.295898,2411.769043 2243.521973,2372.383545 2233.914795,2333.753418 
	C2212.777100,2248.762451 2161.583984,2189.847412 2079.383789,2158.646973 
	C2067.582520,2154.167725 2055.388428,2150.547852 2043.145508,2147.436768 
	C1989.067139,2133.695312 1933.860229,2131.807861 1878.456787,2132.598145 
	C1837.173706,2133.187012 1795.895752,2134.129395 1754.613647,2134.804932 
	C1729.970825,2135.208008 1705.322510,2135.299316 1680.680908,2135.759521 
	C1674.888550,2135.867676 1669.113281,2136.900879 1663.327148,2137.509033 
	C1658.886475,2148.359131 1660.399658,2158.447021 1660.395996,2168.256836 
	C1660.305420,2418.762695 1660.323364,2669.268799 1660.330322,2919.774658 
	C1660.330444,2925.770264 1660.071411,2931.795898 1660.580933,2937.751953 
	C1660.959351,2942.175049 1662.388428,2946.508301 1663.586426,2951.959229 
	C1672.342285,2952.388428 1680.236816,2953.087646 1688.133057,2953.110107 
	C1728.773438,2953.225830 1769.414062,2953.181152 1810.054688,2953.159424 
	C1818.048218,2953.155273 1826.070923,2953.385254 1834.023682,2952.773682 
	C1838.379395,2952.438965 1842.617065,2950.569824 1847.608643,2949.200195 
	C1847.889282,2939.562256 1848.350586,2930.956299 1848.357666,2922.350098 
	C1848.417969,2849.063721 1848.359009,2775.777344 1848.451538,2702.490967 
	C1848.461426,2694.660645 1847.359985,2686.576172 1850.599487,2679.819336 
	C1852.742920,2678.648926 1853.891235,2677.470215 1855.028809,2677.480469 
	C1890.287964,2677.797119 1925.546143,2678.230469 1964.549561,2678.436279 
M2829.333496,2643.523926 
	C2834.552734,2640.573730 2839.918213,2637.853027 2844.968506,2634.637451 
	C2901.558350,2598.604492 2941.433594,2549.445557 2961.719971,2485.097168 
	C2973.742676,2446.961426 2975.501953,2407.804199 2971.427246,2368.388428 
	C2964.480713,2301.191406 2936.300049,2244.607910 2884.580811,2200.566406 
	C2853.536377,2174.130371 2817.078369,2158.233643 2777.892578,2148.097900 
	C2731.098877,2135.994141 2683.303955,2132.392822 2635.251465,2132.558105 
	C2573.316406,2132.770996 2511.385010,2134.092529 2449.452637,2134.970215 
	C2435.466309,2135.168457 2421.473633,2135.296875 2407.502441,2135.896484 
	C2403.117432,2136.084473 2398.793701,2137.707031 2393.352783,2138.915039 
	C2392.989746,2149.686523 2392.368164,2159.564453 2392.366211,2169.442139 
	C2392.312500,2419.280029 2392.323486,2669.117920 2392.328613,2918.955811 
	C2392.328857,2924.951660 2392.093994,2930.969482 2392.529785,2936.936035 
	C2392.856445,2941.409424 2394.085938,2945.816895 2394.760986,2949.435303 
	C2402.616699,2954.208252 2410.106445,2953.050049 2417.314941,2953.091309 
	C2445.295898,2953.250732 2473.278320,2953.172852 2501.260010,2953.168457 
	C2520.580811,2953.165527 2539.903076,2953.277344 2559.221191,2953.043945 
	C2565.696289,2952.965820 2572.676025,2954.189209 2579.430176,2947.451660 
	C2579.714355,2940.258545 2580.334473,2931.715088 2580.344971,2923.171143 
	C2580.426758,2855.881592 2580.387939,2788.591797 2580.397705,2721.302246 
	C2580.399170,2711.309082 2580.194092,2701.304199 2580.618652,2691.327637 
	C2580.806152,2686.924072 2582.328613,2682.577393 2583.463623,2677.161865 
	C2590.993896,2677.161865 2597.563721,2677.054932 2604.129639,2677.180664 
	C2630.090332,2677.677002 2656.065918,2679.093262 2682.006592,2678.607666 
	C2732.528076,2677.662598 2781.283447,2668.226807 2829.333496,2643.523926 
z"/>
<path fill="#0F4574" opacity="1.000000" stroke="none" 
	d="
M1581.848877,1162.870361 
	C1595.663208,1166.525879 1607.776489,1170.399902 1620.171509,1172.846191 
	C1635.148560,1175.802002 1644.979248,1183.784180 1651.796387,1197.487183 
	C1665.742310,1225.520142 1680.671265,1253.064819 1695.236694,1280.788940 
	C1767.442871,1418.229004 1839.662476,1555.661865 1911.877441,1693.097290 
	C1912.187378,1693.687256 1912.498047,1694.276733 1912.808350,1694.866577 
	C1923.864746,1715.886108 1923.193970,1717.708618 1901.187012,1726.351440 
	C1897.113892,1730.708618 1897.476196,1736.151367 1897.960571,1741.431152 
	C1899.730591,1760.722290 1900.552979,1779.994141 1897.808960,1799.264038 
	C1896.927246,1805.456543 1898.193237,1811.163696 1901.445312,1816.484985 
	C1903.181641,1819.326050 1905.218628,1822.074219 1906.412231,1825.140015 
	C1910.539673,1835.741821 1911.306396,1846.609985 1902.135498,1854.710938 
	C1891.877075,1863.772705 1890.181030,1874.767090 1891.094849,1887.246704 
	C1892.717285,1909.401245 1897.547363,1930.777710 1906.958496,1950.904175 
	C1913.769775,1965.470215 1912.354858,1968.092773 1898.311035,1975.909668 
	C1879.523560,1986.366821 1872.879761,1985.327637 1858.402100,1969.420898 
	C1836.534424,1945.395142 1834.183716,1907.081055 1852.947632,1878.346558 
	C1856.194580,1873.374146 1859.962769,1868.742310 1864.002075,1863.258301 
	C1861.462891,1857.835449 1858.742798,1852.608521 1856.526245,1847.176147 
	C1851.250488,1834.245728 1852.276245,1821.807739 1863.021973,1812.390869 
	C1870.316650,1805.998047 1872.349731,1798.691772 1873.245117,1789.709229 
	C1875.107422,1771.024292 1874.510498,1752.485229 1872.650513,1733.864136 
	C1871.656738,1723.914551 1866.885010,1718.054199 1857.219360,1715.633179 
	C1822.965698,1707.053467 1788.758301,1698.288696 1754.505859,1689.704346 
	C1751.307373,1688.902832 1747.766968,1688.105469 1744.648804,1688.696289 
	C1740.986084,1689.390259 1737.337280,1691.196899 1734.207886,1693.302124 
	C1732.132690,1694.698242 1730.830811,1697.373779 1729.436890,1699.633301 
	C1713.693848,1725.156128 1698.073608,1750.754639 1682.248535,1776.226196 
	C1677.448486,1783.951904 1675.979736,1791.900879 1677.211182,1800.981323 
	C1688.357544,1883.169800 1678.159668,1963.098389 1650.935181,2041.092529 
	C1630.366455,2100.018799 1600.691528,2154.256104 1565.447388,2205.574707 
	C1548.848145,2229.744873 1532.283569,2253.939453 1515.567871,2278.028809 
	C1496.876587,2304.965088 1480.829956,2333.427734 1468.717529,2363.837891 
	C1456.645142,2394.147217 1445.919556,2424.998047 1434.906006,2455.720215 
	C1432.445679,2462.583496 1431.411499,2469.945312 1429.422729,2476.993652 
	C1427.382690,2484.223877 1429.392212,2490.000000 1434.704590,2495.044434 
	C1438.568115,2498.712891 1442.611450,2502.316406 1445.816650,2506.525879 
	C1451.034180,2513.377930 1456.578735,2520.239014 1460.322754,2527.908203 
	C1474.305908,2556.550781 1467.927246,2586.603760 1444.058960,2607.666992 
	C1439.141968,2612.006104 1433.997925,2616.088135 1427.997070,2621.090088 
	C1432.417969,2627.758057 1436.604126,2633.564209 1440.265625,2639.684326 
	C1454.786621,2663.956787 1456.787109,2688.695312 1441.485107,2713.321533 
	C1437.692383,2719.425293 1432.056641,2724.430176 1427.007324,2729.690186 
	C1423.827515,2733.002930 1420.163086,2735.850098 1417.188965,2738.486816 
	C1416.006104,2746.112305 1420.851685,2750.485107 1423.742432,2755.518311 
	C1429.817261,2766.094727 1433.864014,2777.296875 1434.815796,2789.444580 
	C1436.730225,2813.878418 1428.460693,2833.833740 1408.357910,2848.509033 
	C1396.224854,2857.366455 1382.678955,2862.489014 1367.860107,2864.344482 
	C1363.237793,2864.923340 1358.569458,2865.223633 1353.912354,2865.418457 
	C1342.906738,2865.878906 1334.876709,2870.229736 1330.983398,2881.244629 
	C1329.450806,2885.580566 1326.671021,2889.499023 1324.292236,2893.508789 
	C1306.284424,2923.860840 1279.913940,2943.284668 1245.467163,2949.986328 
	C1182.960693,2962.147461 1124.670532,2951.930420 1073.301636,2912.586914 
	C1061.762817,2903.749512 1051.307129,2893.116699 1041.878662,2882.014648 
	C1032.967651,2871.521729 1023.250549,2866.207764 1009.256531,2866.534180 
	C994.483459,2866.879150 980.288208,2862.826416 966.913574,2856.198242 
	C939.156677,2842.442139 923.440063,2819.704346 917.431580,2789.856689 
	C914.565186,2775.617432 917.323425,2762.020996 923.779907,2749.133545 
	C926.427368,2743.849121 929.225342,2738.640137 932.341187,2732.654785 
	C928.503845,2728.463379 925.057678,2724.565430 921.468018,2720.803955 
	C910.192566,2708.988770 902.156555,2695.447510 898.593140,2679.345459 
	C893.825012,2657.799561 898.240051,2638.406982 911.716858,2621.007324 
	C914.908691,2616.886230 918.084534,2612.752930 921.843262,2607.879150 
	C918.422302,2603.073975 915.259583,2598.962402 912.453735,2594.620117 
	C907.047546,2586.253662 900.800903,2578.227051 896.744568,2569.229004 
	C883.098999,2538.960449 892.938232,2504.930420 920.005188,2485.954834 
	C921.095093,2485.190918 922.174194,2484.314697 923.395081,2483.849854 
	C937.792664,2478.366943 940.400269,2468.494385 938.156494,2453.660889 
	C932.474670,2416.098145 927.295227,2378.502197 917.954956,2341.607422 
	C901.656921,2277.229736 876.805542,2216.328369 843.345398,2159.010498 
	C815.066711,2110.568359 790.235107,2060.510254 769.901978,2008.208496 
	C745.090942,1944.388550 728.894653,1878.765869 726.491821,1810.013306 
	C722.106384,1684.531372 759.322937,1573.186401 842.574280,1479.066772 
	C898.161011,1416.223145 968.367432,1374.737427 1049.236938,1352.016479 
	C1059.655762,1349.089355 1067.273315,1344.126587 1072.768921,1335.185791 
	C1090.914673,1305.664917 1108.897583,1276.040894 1127.368774,1246.724609 
	C1133.981934,1236.228516 1132.515625,1226.768799 1126.835938,1216.741211 
	C1109.758179,1186.590576 1092.838867,1156.349976 1075.931641,1126.103149 
	C1064.551758,1105.744873 1053.269043,1085.332031 1042.009888,1064.906616 
	C1039.763550,1060.831665 1037.113647,1056.768188 1035.999146,1052.358398 
	C1035.315308,1049.653076 1036.216064,1045.292114 1038.121216,1043.435547 
	C1042.844971,1038.832520 1048.414307,1035.034668 1053.909180,1031.303955 
	C1058.840942,1027.955444 1064.182617,1029.791870 1069.369507,1031.044678 
	C1090.741211,1036.206909 1112.053101,1041.636719 1133.500977,1046.460938 
	C1172.497559,1055.232300 1211.578247,1063.629150 1250.615356,1072.220947 
	C1255.164185,1073.221924 1259.683472,1074.379517 1264.175537,1075.613037 
	C1369.544556,1104.548340 1474.907959,1133.504150 1581.848877,1162.870361 
M1073.399048,2027.257690 
	C1080.117065,2018.136719 1086.883911,2009.051147 1093.545044,1999.888916 
	C1140.621704,1935.134888 1165.279419,1862.114868 1173.397461,1783.017090 
	C1174.349609,1773.739258 1174.849854,1764.409668 1176.001953,1755.159302 
	C1176.930176,1747.705200 1180.731812,1744.802734 1188.155273,1744.894531 
	C1199.432861,1745.034058 1203.579956,1748.697998 1203.443970,1760.754517 
	C1203.226318,1780.063477 1202.070068,1799.360352 1201.425537,1818.666260 
	C1198.379639,1909.896118 1195.402222,2001.128174 1192.299316,2092.356201 
	C1192.032715,2100.195068 1192.590698,2108.262451 1189.223999,2116.073730 
	C1183.303711,2118.326172 1177.609741,2120.117188 1172.236084,2122.601074 
	C1146.000366,2134.729004 1138.187866,2164.939941 1155.578125,2187.830078 
	C1168.134399,2204.357178 1185.071289,2211.831787 1205.931030,2211.525635 
	C1234.252808,2211.109863 1256.976685,2177.462158 1242.047485,2150.800293 
	C1236.693604,2141.238770 1230.108032,2133.201904 1220.779297,2127.499512 
	C1215.718994,2124.406250 1210.542114,2121.504395 1204.849487,2118.184814 
	C1204.849487,2111.050293 1204.652222,2104.433838 1204.880615,2097.831787 
	C1206.815186,2041.901367 1208.864136,1985.974731 1210.805908,1930.044556 
	C1212.678467,1876.106934 1214.432129,1822.165039 1216.335938,1768.228516 
	C1216.542114,1762.387573 1215.253906,1756.108032 1220.565308,1750.470215 
	C1222.451538,1750.212158 1225.086670,1749.307739 1227.580444,1749.601929 
	C1240.453369,1751.119629 1243.495117,1754.349487 1244.207397,1767.363281 
	C1244.571289,1774.010864 1244.427368,1780.689819 1244.407837,1787.354370 
	C1244.335205,1812.068970 1246.349487,1836.615723 1250.436035,1860.981812 
	C1257.315186,1901.998535 1270.769287,1940.989990 1287.109741,1979.071655 
	C1312.467896,2038.169312 1345.759277,2092.700195 1382.998047,2144.918945 
	C1399.377563,2167.887695 1397.226318,2165.411865 1388.233276,2188.197266 
	C1365.212891,2246.523193 1344.180420,2305.506104 1330.695312,2366.881592 
	C1327.844849,2379.854980 1325.914917,2393.107178 1324.660522,2406.335205 
	C1323.089600,2422.900146 1322.570923,2439.568604 1321.819336,2456.202393 
	C1321.707520,2458.675049 1322.806274,2461.202637 1323.467285,2464.271973 
	C1327.726196,2465.118408 1331.537964,2466.430420 1335.382446,2466.535156 
	C1346.704468,2466.844482 1358.046143,2466.444580 1369.367676,2466.761719 
	C1379.448608,2467.043945 1385.488281,2462.892822 1388.377808,2452.986572 
	C1393.415161,2435.717773 1399.264282,2418.687500 1404.493774,2401.472656 
	C1419.118408,2353.329834 1439.874146,2307.995361 1467.343750,2265.872070 
	C1489.911865,2231.265137 1513.089600,2197.052979 1536.208618,2162.808350 
	C1554.873047,2135.161865 1572.903931,2107.155273 1587.104492,2076.887451 
	C1624.961304,1996.196411 1641.570312,1911.562866 1635.299561,1822.401978 
	C1633.839722,1801.644287 1627.562500,1784.172974 1614.709961,1767.535400 
	C1559.063721,1695.502197 1496.744019,1630.056885 1427.012451,1571.541382 
	C1368.664917,1522.578979 1307.792480,1477.340210 1240.441650,1441.338257 
	C1200.997192,1420.253540 1160.246094,1402.131104 1118.144653,1386.975708 
	C1106.963379,1382.950684 1096.429443,1382.268799 1085.108032,1386.420532 
	C1063.844971,1394.217896 1041.886230,1400.243164 1020.968140,1408.834473 
	C930.426392,1446.020752 862.409180,1508.493652 817.800720,1595.429077 
	C772.356201,1683.994141 762.268921,1778.228394 778.416565,1875.579102 
	C790.184753,1946.527222 814.641663,2013.350220 848.009521,2076.928223 
	C866.591003,2112.333008 885.779602,2147.418457 904.458435,2182.772705 
	C928.529724,2228.333740 948.163757,2275.688721 959.123962,2326.190186 
	C968.025085,2367.204102 975.800110,2408.462158 984.156311,2449.595215 
	C985.321167,2455.328613 986.954529,2460.967285 988.190735,2465.926514 
	C1009.670288,2470.897217 1044.061523,2469.791260 1058.679199,2463.864258 
	C1059.052124,2460.229248 1059.996704,2456.277100 1059.769165,2452.393555 
	C1058.171875,2425.127686 1057.917725,2397.661865 1054.273071,2370.659668 
	C1043.556641,2291.265381 1026.879150,2213.123535 1000.306763,2137.335449 
	C999.204651,2134.191895 998.119202,2131.039062 997.144958,2127.854492 
	C995.200439,2121.497803 996.860352,2116.322266 1001.665833,2111.599609 
	C1027.407349,2086.301025 1049.042603,2057.478027 1073.399048,2027.257690 
M1306.246582,1431.832275 
	C1421.129150,1504.004517 1522.328857,1591.972168 1610.148926,1695.340698 
	C1619.637085,1706.508911 1628.326294,1718.353149 1637.687256,1729.633911 
	C1640.451538,1732.965088 1644.248901,1735.438843 1648.427246,1739.042603 
	C1652.421753,1733.586670 1655.793457,1729.563477 1658.526611,1725.145142 
	C1668.693481,1708.709473 1678.755859,1692.206787 1688.661499,1675.612305 
	C1703.093506,1651.435303 1704.492065,1655.064575 1691.209473,1626.279175 
	C1651.850830,1540.982422 1596.347168,1467.625488 1526.989746,1404.435547 
	C1450.996948,1335.200562 1364.097534,1284.505005 1267.065430,1251.206055 
	C1248.253662,1244.750122 1228.428833,1241.152344 1208.954468,1236.753662 
	C1196.523682,1233.945801 1186.723389,1238.404785 1180.143799,1249.537720 
	C1176.075073,1256.422119 1171.917114,1263.253662 1167.771606,1270.092407 
	C1156.370972,1288.899414 1144.818359,1307.616455 1133.639771,1326.554199 
	C1130.730957,1331.482178 1126.429077,1336.394897 1129.153076,1343.923584 
	C1142.237427,1352.350464 1158.059692,1355.827393 1172.455444,1362.487793 
	C1187.572266,1369.481812 1202.900635,1376.029419 1217.902710,1383.257446 
	C1232.305542,1390.197144 1246.585571,1397.436523 1260.594849,1405.135254 
	C1275.189941,1413.155762 1289.396606,1421.882935 1306.246582,1431.832275 
M1670.830811,1327.061890 
	C1654.631592,1295.696411 1637.979004,1264.553345 1622.437134,1232.865479 
	C1615.363281,1218.443115 1605.142334,1210.493286 1589.514160,1206.978516 
	C1562.235718,1200.843506 1535.175415,1193.652710 1508.208008,1186.234863 
	C1406.741577,1158.324463 1305.358521,1130.110718 1203.923706,1102.085449 
	C1174.393555,1093.926514 1144.818848,1085.924561 1115.194580,1078.116333 
	C1111.735107,1077.204590 1107.827515,1077.992676 1101.989258,1077.992676 
	C1107.587280,1093.468140 1115.857056,1105.527466 1122.813843,1118.196899 
	C1130.187622,1131.625610 1137.558472,1145.065186 1145.338135,1158.259644 
	C1152.708008,1170.759033 1158.215942,1184.500122 1168.531250,1195.302856 
	C1172.953857,1195.302856 1176.927734,1195.547852 1180.862915,1195.261963 
	C1201.693359,1193.748535 1222.011963,1196.489258 1242.199097,1201.588501 
	C1269.395020,1208.458008 1295.681519,1217.874756 1321.740112,1228.137695 
	C1450.650269,1278.907715 1556.442505,1360.950439 1643.765137,1467.433228 
	C1683.687988,1516.115845 1716.013550,1569.691528 1738.113525,1628.935059 
	C1742.253418,1640.032837 1748.429932,1646.472412 1760.415283,1648.710815 
	C1782.664185,1652.865967 1804.670044,1658.307983 1826.827759,1662.974243 
	C1831.862061,1664.034546 1837.260376,1665.763672 1842.247559,1661.415771 
	C1843.243408,1653.659302 1838.441040,1647.670776 1835.136719,1641.344604 
	C1780.861694,1537.436646 1726.478882,1433.584961 1670.830811,1327.061890 
M1098.000000,2512.326660 
	C1060.035645,2512.329102 1022.071228,2512.318115 984.106812,2512.349121 
	C978.781128,2512.353271 973.394775,2512.092285 968.141541,2512.768799 
	C953.891296,2514.604736 942.882446,2521.544678 937.849731,2535.424561 
	C932.782410,2549.399658 937.272949,2561.566162 946.968262,2572.136230 
	C955.066589,2580.964844 965.591980,2584.985107 977.127808,2586.044922 
	C988.385010,2587.079102 999.728638,2587.561768 1011.036438,2587.596436 
	C1126.256470,2587.949951 1241.477051,2588.181152 1356.697510,2588.376221 
	C1365.347900,2588.390869 1374.047241,2588.329346 1382.634277,2587.438232 
	C1389.184326,2586.758789 1395.945557,2585.574951 1401.997192,2583.106445 
	C1420.437378,2575.584717 1427.389038,2556.325928 1418.622681,2538.430908 
	C1412.993286,2526.938965 1403.555420,2519.498047 1391.348877,2516.830811 
	C1381.037354,2514.578125 1370.299194,2513.367920 1359.739868,2513.301758 
	C1273.828003,2512.763184 1187.913574,2512.602295 1098.000000,2512.326660 
M1222.000732,2632.565430 
	C1143.427612,2632.772705 1064.854004,2632.899170 986.282166,2633.322754 
	C979.077087,2633.361572 971.469543,2634.157227 964.759338,2636.573975 
	C943.762512,2644.135742 936.419312,2666.586914 948.053833,2685.641846 
	C953.083374,2693.879150 960.386475,2699.485107 969.110840,2703.365479 
	C977.799683,2707.230225 986.944519,2708.522949 996.389038,2708.389648 
	C1017.026978,2708.098145 1037.666138,2707.721436 1058.304932,2707.705811 
	C1154.198486,2707.633789 1250.092041,2707.676270 1345.985596,2707.666016 
	C1352.644409,2707.665283 1359.349487,2708.039795 1365.948853,2707.387695 
	C1372.512939,2706.739258 1379.334473,2705.952393 1385.409912,2703.594727 
	C1407.324585,2695.091797 1413.816162,2668.878662 1398.821533,2650.869629 
	C1392.213623,2642.932861 1383.791992,2637.464111 1373.619751,2635.786621 
	C1364.468994,2634.278076 1355.123047,2633.351074 1345.853516,2633.268799 
	C1305.901245,2632.914307 1265.945312,2632.965088 1222.000732,2632.565430 
M962.050903,2789.238770 
	C967.098511,2811.048828 982.179077,2821.269531 1003.142700,2824.082764 
	C1011.022949,2825.140137 1019.087158,2825.115234 1027.066528,2825.100342 
	C1132.948853,2824.903320 1238.830933,2824.622314 1344.713135,2824.349609 
	C1348.707642,2824.339355 1352.752075,2824.571289 1356.682983,2824.032471 
	C1361.254517,2823.405518 1365.981079,2822.664307 1370.198242,2820.909912 
	C1390.037354,2812.656494 1397.187378,2791.301514 1386.165039,2772.898682 
	C1378.919678,2760.801758 1368.005249,2753.436279 1353.917236,2751.777100 
	C1346.014526,2750.845947 1337.969971,2750.891357 1329.989136,2750.887451 
	C1226.099487,2750.834717 1122.209839,2750.845703 1018.320129,2750.866943 
	C1011.663086,2750.868408 1004.978516,2750.738770 998.353943,2751.264404 
	C976.211426,2753.021973 965.897034,2762.934082 962.050903,2789.238770 
z"/>
<path fill="#0F4775" opacity="1.000000" stroke="none" 
	d="
M3072.260010,2643.981934 
	C3142.302246,2475.881348 3211.780273,2309.198975 3281.332764,2142.547363 
	C3282.065430,2140.791992 3283.773193,2139.443604 3285.552490,2137.258545 
	C3303.537354,2134.047607 3322.181152,2136.087646 3340.708740,2135.726074 
	C3358.696533,2135.375000 3376.697510,2135.535889 3394.690918,2135.681152 
	C3413.259033,2135.831055 3431.875732,2134.890381 3450.730225,2136.631348 
	C3453.529053,2142.047852 3456.303467,2146.580078 3458.314453,2151.429199 
	C3568.065186,2416.090576 3677.754150,2680.777832 3787.362549,2945.498291 
	C3787.774658,2946.492432 3786.938721,2948.003174 3786.414551,2950.630859 
	C3781.820557,2951.429688 3776.733643,2953.066895 3771.641113,2953.083740 
	C3716.325439,2953.264404 3661.008545,2953.234619 3605.692383,2953.105957 
	C3601.114258,2953.095215 3596.539062,2951.943115 3590.653076,2951.143311 
	C3587.587891,2944.039062 3584.262695,2936.858887 3581.357910,2929.512207 
	C3564.696289,2887.373779 3548.220703,2845.161621 3531.503662,2803.045410 
	C3522.943115,2781.477783 3522.775879,2781.349365 3499.498535,2781.328369 
	C3407.526123,2781.245605 3315.553711,2781.241211 3223.581299,2781.336670 
	C3201.047607,2781.359863 3200.896729,2781.524170 3192.800781,2801.908447 
	C3176.321045,2843.401367 3160.050049,2884.977783 3143.622070,2926.491699 
	C3140.456787,2934.490967 3136.966797,2942.362305 3134.222168,2948.878662 
	C3126.705078,2953.860107 3119.905273,2953.199707 3113.317871,2953.210205 
	C3065.332275,2953.285400 3017.346436,2953.314941 2969.361328,2953.178223 
	C2962.857422,2953.159668 2956.356445,2952.136475 2951.223633,2951.696045 
	C2946.870850,2946.478271 2948.482178,2942.659180 2949.915039,2939.003662 
	C2953.562744,2929.697998 2957.318848,2920.433350 2961.155518,2911.203613 
	C2997.989258,2822.597168 3034.848633,2734.000977 3072.260010,2643.981934 
M3353.197998,2400.095703 
	C3344.065430,2422.937988 3334.909668,2445.770752 3325.805420,2468.624268 
	C3310.304443,2507.536377 3294.791260,2546.443848 3279.404053,2585.401123 
	C3277.283203,2590.771240 3273.662598,2596.089844 3277.116699,2603.085449 
	C3279.195557,2603.608643 3281.707031,2604.787842 3284.220947,2604.792969 
	C3336.081055,2604.899414 3387.941162,2604.898438 3439.801270,2604.789795 
	C3442.314209,2604.784424 3444.824219,2603.598145 3447.451172,2602.932373 
	C3447.788086,2600.483398 3448.801758,2598.303223 3448.198975,2596.750000 
	C3421.750732,2528.589600 3395.178711,2460.477051 3368.521240,2392.398193 
	C3367.387207,2389.502197 3365.305664,2386.977051 3362.394775,2382.188232 
	C3358.995117,2388.644043 3356.652100,2393.092773 3353.197998,2400.095703 
z"/>
<path fill="#0F4775" opacity="1.000000" stroke="none" 
	d="
M1962.677002,2678.541016 
	C1925.546143,2678.230469 1890.287964,2677.797119 1855.028809,2677.480469 
	C1853.891235,2677.470215 1852.742920,2678.648926 1850.599487,2679.819336 
	C1847.359985,2686.576172 1848.461426,2694.660645 1848.451538,2702.490967 
	C1848.359009,2775.777344 1848.417969,2849.063721 1848.357666,2922.350098 
	C1848.350586,2930.956299 1847.889282,2939.562256 1847.608643,2949.200195 
	C1842.617065,2950.569824 1838.379395,2952.438965 1834.023682,2952.773682 
	C1826.070923,2953.385254 1818.048218,2953.155273 1810.054688,2953.159424 
	C1769.414062,2953.181152 1728.773438,2953.225830 1688.133057,2953.110107 
	C1680.236816,2953.087646 1672.342285,2952.388428 1663.586426,2951.959229 
	C1662.388428,2946.508301 1660.959351,2942.175049 1660.580933,2937.751953 
	C1660.071411,2931.795898 1660.330444,2925.770264 1660.330322,2919.774658 
	C1660.323364,2669.268799 1660.305420,2418.762695 1660.395996,2168.256836 
	C1660.399658,2158.447021 1658.886475,2148.359131 1663.327148,2137.509033 
	C1669.113281,2136.900879 1674.888550,2135.867676 1680.680908,2135.759521 
	C1705.322510,2135.299316 1729.970825,2135.208008 1754.613647,2134.804932 
	C1795.895752,2134.129395 1837.173706,2133.187012 1878.456787,2132.598145 
	C1933.860229,2131.807861 1989.067139,2133.695312 2043.145508,2147.436768 
	C2055.388428,2150.547852 2067.582520,2154.167725 2079.383789,2158.646973 
	C2161.583984,2189.847412 2212.777100,2248.762451 2233.914795,2333.753418 
	C2243.521973,2372.383545 2244.295898,2411.769043 2237.894531,2450.867432 
	C2221.436279,2551.386230 2148.220215,2633.159424 2048.999023,2663.611328 
	C2021.433594,2672.071533 1993.146729,2676.046143 1962.677002,2678.541016 
M1871.235474,2499.621338 
	C1893.140137,2500.686279 1915.041138,2502.501709 1936.950439,2502.606934 
	C1959.195679,2502.713867 1980.426514,2497.475586 1999.785034,2485.817871 
	C2021.565186,2472.701904 2034.947144,2453.700684 2039.727051,2428.829590 
	C2042.497192,2414.416992 2043.161377,2399.958496 2041.033325,2385.208252 
	C2035.947266,2349.957031 2016.675781,2327.042725 1982.961304,2316.270508 
	C1963.762573,2310.136475 1943.920776,2308.329102 1923.847900,2309.088623 
	C1903.919800,2309.842773 1883.993408,2310.687744 1864.080322,2311.754150 
	C1859.654785,2311.991211 1855.287720,2313.320801 1850.782593,2314.168213 
	C1849.934082,2317.745117 1848.819702,2320.268555 1848.812134,2322.794922 
	C1848.651489,2376.664062 1848.583618,2430.533203 1848.632690,2484.402588 
	C1848.635620,2487.617432 1849.769043,2490.831299 1850.328491,2493.792725 
	C1852.563965,2495.094238 1854.154541,2496.498535 1855.989502,2496.989258 
	C1859.820190,2498.013672 1863.780029,2498.555420 1871.235474,2499.621338 
z"/>
<path fill="#0F4775" opacity="1.000000" stroke="none" 
	d="
M2827.999756,2644.175049 
	C2781.283447,2668.226807 2732.528076,2677.662598 2682.006592,2678.607666 
	C2656.065918,2679.093262 2630.090332,2677.677002 2604.129639,2677.180664 
	C2597.563721,2677.054932 2590.993896,2677.161865 2583.463623,2677.161865 
	C2582.328613,2682.577393 2580.806152,2686.924072 2580.618652,2691.327637 
	C2580.194092,2701.304199 2580.399170,2711.309082 2580.397705,2721.302246 
	C2580.387939,2788.591797 2580.426758,2855.881592 2580.344971,2923.171143 
	C2580.334473,2931.715088 2579.714355,2940.258545 2579.430176,2947.451660 
	C2572.676025,2954.189209 2565.696289,2952.965820 2559.221191,2953.043945 
	C2539.903076,2953.277344 2520.580811,2953.165527 2501.260010,2953.168457 
	C2473.278320,2953.172852 2445.295898,2953.250732 2417.314941,2953.091309 
	C2410.106445,2953.050049 2402.616699,2954.208252 2394.760986,2949.435303 
	C2394.085938,2945.816895 2392.856445,2941.409424 2392.529785,2936.936035 
	C2392.093994,2930.969482 2392.328857,2924.951660 2392.328613,2918.955811 
	C2392.323486,2669.117920 2392.312500,2419.280029 2392.366211,2169.442139 
	C2392.368164,2159.564453 2392.989746,2149.686523 2393.352783,2138.915039 
	C2398.793701,2137.707031 2403.117432,2136.084473 2407.502441,2135.896484 
	C2421.473633,2135.296875 2435.466309,2135.168457 2449.452637,2134.970215 
	C2511.385010,2134.092529 2573.316406,2132.770996 2635.251465,2132.558105 
	C2683.303955,2132.392822 2731.098877,2135.994141 2777.892578,2148.097900 
	C2817.078369,2158.233643 2853.536377,2174.130371 2884.580811,2200.566406 
	C2936.300049,2244.607910 2964.480713,2301.191406 2971.427246,2368.388428 
	C2975.501953,2407.804199 2973.742676,2446.961426 2961.719971,2485.097168 
	C2941.433594,2549.445557 2901.558350,2598.604492 2844.968506,2634.637451 
	C2839.918213,2637.853027 2834.552734,2640.573730 2827.999756,2644.175049 
M2580.360107,2457.685059 
	C2581.164795,2470.078125 2578.263672,2482.821777 2583.278809,2495.178467 
	C2586.793945,2496.366455 2589.840088,2498.047119 2593.023926,2498.370605 
	C2620.179199,2501.129883 2647.373047,2504.124023 2674.708740,2502.524902 
	C2692.767822,2501.468262 2710.204590,2497.417236 2726.404785,2488.717285 
	C2755.261719,2473.219971 2770.495605,2449.036865 2772.819092,2416.642334 
	C2773.436523,2408.031982 2773.368164,2399.313721 2772.852051,2390.690674 
	C2770.601318,2353.072998 2750.221191,2327.260742 2714.030518,2316.111328 
	C2696.717529,2310.777344 2678.870361,2308.451172 2660.798340,2308.952637 
	C2638.179443,2309.580078 2615.570801,2310.710693 2592.976074,2311.956299 
	C2589.291748,2312.159424 2585.701904,2314.075684 2581.241943,2315.456055 
	C2579.413574,2362.034668 2580.796875,2407.920410 2580.360107,2457.685059 
z"/>
<path fill="#000001" opacity="1.000000" stroke="none" 
	d="
M1072.544800,2028.392334 
	C1049.042603,2057.478027 1027.407349,2086.301025 1001.665833,2111.599609 
	C996.860352,2116.322266 995.200439,2121.497803 997.144958,2127.854492 
	C998.119202,2131.039062 999.204651,2134.191895 1000.306763,2137.335449 
	C1026.879150,2213.123535 1043.556641,2291.265381 1054.273071,2370.659668 
	C1057.917725,2397.661865 1058.171875,2425.127686 1059.769165,2452.393555 
	C1059.996704,2456.277100 1059.052124,2460.229248 1058.679199,2463.864258 
	C1044.061523,2469.791260 1009.670288,2470.897217 988.190735,2465.926514 
	C986.954529,2460.967285 985.321167,2455.328613 984.156311,2449.595215 
	C975.800110,2408.462158 968.025085,2367.204102 959.123962,2326.190186 
	C948.163757,2275.688721 928.529724,2228.333740 904.458435,2182.772705 
	C885.779602,2147.418457 866.591003,2112.333008 848.009521,2076.928223 
	C814.641663,2013.350220 790.184753,1946.527222 778.416565,1875.579102 
	C762.268921,1778.228394 772.356201,1683.994141 817.800720,1595.429077 
	C862.409180,1508.493652 930.426392,1446.020752 1020.968140,1408.834473 
	C1041.886230,1400.243164 1063.844971,1394.217896 1085.108032,1386.420532 
	C1096.429443,1382.268799 1106.963379,1382.950684 1118.144653,1386.975708 
	C1160.246094,1402.131104 1200.997192,1420.253540 1240.441650,1441.338257 
	C1307.792480,1477.340210 1368.664917,1522.578979 1427.012451,1571.541382 
	C1496.744019,1630.056885 1559.063721,1695.502197 1614.709961,1767.535400 
	C1627.562500,1784.172974 1633.839722,1801.644287 1635.299561,1822.401978 
	C1641.570312,1911.562866 1624.961304,1996.196411 1587.104492,2076.887451 
	C1572.903931,2107.155273 1554.873047,2135.161865 1536.208618,2162.808350 
	C1513.089600,2197.052979 1489.911865,2231.265137 1467.343750,2265.872070 
	C1439.874146,2307.995361 1419.118408,2353.329834 1404.493774,2401.472656 
	C1399.264282,2418.687500 1393.415161,2435.717773 1388.377808,2452.986572 
	C1385.488281,2462.892822 1379.448608,2467.043945 1369.367676,2466.761719 
	C1358.046143,2466.444580 1346.704468,2466.844482 1335.382446,2466.535156 
	C1331.537964,2466.430420 1327.726196,2465.118408 1323.467285,2464.271973 
	C1322.806274,2461.202637 1321.707520,2458.675049 1321.819336,2456.202393 
	C1322.570923,2439.568604 1323.089600,2422.900146 1324.660522,2406.335205 
	C1325.914917,2393.107178 1327.844849,2379.854980 1330.695312,2366.881592 
	C1344.180420,2305.506104 1365.212891,2246.523193 1388.233276,2188.197266 
	C1397.226318,2165.411865 1399.377563,2167.887695 1382.998047,2144.918945 
	C1345.759277,2092.700195 1312.467896,2038.169312 1287.109741,1979.071655 
	C1270.769287,1940.989990 1257.315186,1901.998535 1250.436035,1860.981812 
	C1246.349487,1836.615723 1244.335205,1812.068970 1244.407837,1787.354370 
	C1244.427368,1780.689819 1244.571289,1774.010864 1244.207397,1767.363281 
	C1243.495117,1754.349487 1240.453369,1751.119629 1227.580444,1749.601929 
	C1225.086670,1749.307739 1222.451538,1750.212158 1220.565308,1750.470215 
	C1215.253906,1756.108032 1216.542114,1762.387573 1216.335938,1768.228516 
	C1214.432129,1822.165039 1212.678467,1876.106934 1210.805908,1930.044556 
	C1208.864136,1985.974731 1206.815186,2041.901367 1204.880615,2097.831787 
	C1204.652222,2104.433838 1204.849487,2111.050293 1204.849487,2118.184814 
	C1210.542114,2121.504395 1215.718994,2124.406250 1220.779297,2127.499512 
	C1230.108032,2133.201904 1236.693604,2141.238770 1242.047485,2150.800293 
	C1256.976685,2177.462158 1234.252808,2211.109863 1205.931030,2211.525635 
	C1185.071289,2211.831787 1168.134399,2204.357178 1155.578125,2187.830078 
	C1138.187866,2164.939941 1146.000366,2134.729004 1172.236084,2122.601074 
	C1177.609741,2120.117188 1183.303711,2118.326172 1189.223999,2116.073730 
	C1192.590698,2108.262451 1192.032715,2100.195068 1192.299316,2092.356201 
	C1195.402222,2001.128174 1198.379639,1909.896118 1201.425537,1818.666260 
	C1202.070068,1799.360352 1203.226318,1780.063477 1203.443970,1760.754517 
	C1203.579956,1748.697998 1199.432861,1745.034058 1188.155273,1744.894531 
	C1180.731812,1744.802734 1176.930176,1747.705200 1176.001953,1755.159302 
	C1174.849854,1764.409668 1174.349609,1773.739258 1173.397461,1783.017090 
	C1165.279419,1862.114868 1140.621704,1935.134888 1093.545044,1999.888916 
	C1086.883911,2009.051147 1080.117065,2018.136719 1072.544800,2028.392334 
z"/>
<path fill="#000101" opacity="1.000000" stroke="none" 
	d="
M1305.009766,1431.066650 
	C1289.396606,1421.882935 1275.189941,1413.155762 1260.594849,1405.135254 
	C1246.585571,1397.436523 1232.305542,1390.197144 1217.902710,1383.257446 
	C1202.900635,1376.029419 1187.572266,1369.481812 1172.455444,1362.487793 
	C1158.059692,1355.827393 1142.237427,1352.350464 1129.153076,1343.923584 
	C1126.429077,1336.394897 1130.730957,1331.482178 1133.639771,1326.554199 
	C1144.818359,1307.616455 1156.370972,1288.899414 1167.771606,1270.092407 
	C1171.917114,1263.253662 1176.075073,1256.422119 1180.143799,1249.537720 
	C1186.723389,1238.404785 1196.523682,1233.945801 1208.954468,1236.753662 
	C1228.428833,1241.152344 1248.253662,1244.750122 1267.065430,1251.206055 
	C1364.097534,1284.505005 1450.996948,1335.200562 1526.989746,1404.435547 
	C1596.347168,1467.625488 1651.850830,1540.982422 1691.209473,1626.279175 
	C1704.492065,1655.064575 1703.093506,1651.435303 1688.661499,1675.612305 
	C1678.755859,1692.206787 1668.693481,1708.709473 1658.526611,1725.145142 
	C1655.793457,1729.563477 1652.421753,1733.586670 1648.427246,1739.042603 
	C1644.248901,1735.438843 1640.451538,1732.965088 1637.687256,1729.633911 
	C1628.326294,1718.353149 1619.637085,1706.508911 1610.148926,1695.340698 
	C1522.328857,1591.972168 1421.129150,1504.004517 1305.009766,1431.066650 
z"/>
<path fill="#000102" opacity="1.000000" stroke="none" 
	d="
M1671.475586,1328.391235 
	C1726.478882,1433.584961 1780.861694,1537.436646 1835.136719,1641.344604 
	C1838.441040,1647.670776 1843.243408,1653.659302 1842.247559,1661.415771 
	C1837.260376,1665.763672 1831.862061,1664.034546 1826.827759,1662.974243 
	C1804.670044,1658.307983 1782.664185,1652.865967 1760.415283,1648.710815 
	C1748.429932,1646.472412 1742.253418,1640.032837 1738.113525,1628.935059 
	C1716.013550,1569.691528 1683.687988,1516.115845 1643.765137,1467.433228 
	C1556.442505,1360.950439 1450.650269,1278.907715 1321.740112,1228.137695 
	C1295.681519,1217.874756 1269.395020,1208.458008 1242.199097,1201.588501 
	C1222.011963,1196.489258 1201.693359,1193.748535 1180.862915,1195.261963 
	C1176.927734,1195.547852 1172.953857,1195.302856 1168.531250,1195.302856 
	C1158.215942,1184.500122 1152.708008,1170.759033 1145.338135,1158.259644 
	C1137.558472,1145.065186 1130.187622,1131.625610 1122.813843,1118.196899 
	C1115.857056,1105.527466 1107.587280,1093.468140 1101.989258,1077.992676 
	C1107.827515,1077.992676 1111.735107,1077.204590 1115.194580,1078.116333 
	C1144.818848,1085.924561 1174.393555,1093.926514 1203.923706,1102.085449 
	C1305.358521,1130.110718 1406.741577,1158.324463 1508.208008,1186.234863 
	C1535.175415,1193.652710 1562.235718,1200.843506 1589.514160,1206.978516 
	C1605.142334,1210.493286 1615.363281,1218.443115 1622.437134,1232.865479 
	C1637.979004,1264.553345 1654.631592,1295.696411 1671.475586,1328.391235 
z"/>
<path fill="#000203" opacity="1.000000" stroke="none" 
	d="
M1100.000000,2512.326660 
	C1187.913574,2512.602295 1273.828003,2512.763184 1359.739868,2513.301758 
	C1370.299194,2513.367920 1381.037354,2514.578125 1391.348877,2516.830811 
	C1403.555420,2519.498047 1412.993286,2526.938965 1418.622681,2538.430908 
	C1427.389038,2556.325928 1420.437378,2575.584717 1401.997192,2583.106445 
	C1395.945557,2585.574951 1389.184326,2586.758789 1382.634277,2587.438232 
	C1374.047241,2588.329346 1365.347900,2588.390869 1356.697510,2588.376221 
	C1241.477051,2588.181152 1126.256470,2587.949951 1011.036438,2587.596436 
	C999.728638,2587.561768 988.385010,2587.079102 977.127808,2586.044922 
	C965.591980,2584.985107 955.066589,2580.964844 946.968262,2572.136230 
	C937.272949,2561.566162 932.782410,2549.399658 937.849731,2535.424561 
	C942.882446,2521.544678 953.891296,2514.604736 968.141541,2512.768799 
	C973.394775,2512.092285 978.781128,2512.353271 984.106812,2512.349121 
	C1022.071228,2512.318115 1060.035645,2512.329102 1100.000000,2512.326660 
z"/>
<path fill="#000203" opacity="1.000000" stroke="none" 
	d="
M1223.995728,2632.716797 
	C1265.945312,2632.965088 1305.901245,2632.914307 1345.853516,2633.268799 
	C1355.123047,2633.351074 1364.468994,2634.278076 1373.619751,2635.786621 
	C1383.791992,2637.464111 1392.213623,2642.932861 1398.821533,2650.869629 
	C1413.816162,2668.878662 1407.324585,2695.091797 1385.409912,2703.594727 
	C1379.334473,2705.952393 1372.512939,2706.739258 1365.948853,2707.387695 
	C1359.349487,2708.039795 1352.644409,2707.665283 1345.985596,2707.666016 
	C1250.092041,2707.676270 1154.198486,2707.633789 1058.304932,2707.705811 
	C1037.666138,2707.721436 1017.026978,2708.098145 996.389038,2708.389648 
	C986.944519,2708.522949 977.799683,2707.230225 969.110840,2703.365479 
	C960.386475,2699.485107 953.083374,2693.879150 948.053833,2685.641846 
	C936.419312,2666.586914 943.762512,2644.135742 964.759338,2636.573975 
	C971.469543,2634.157227 979.077087,2633.361572 986.282166,2633.322754 
	C1064.854004,2632.899170 1143.427612,2632.772705 1223.995728,2632.716797 
z"/>
<path fill="#000001" opacity="1.000000" stroke="none" 
	d="
M961.935181,2787.574707 
	C965.897034,2762.934082 976.211426,2753.021973 998.353943,2751.264404 
	C1004.978516,2750.738770 1011.663086,2750.868408 1018.320129,2750.866943 
	C1122.209839,2750.845703 1226.099487,2750.834717 1329.989136,2750.887451 
	C1337.969971,2750.891357 1346.014526,2750.845947 1353.917236,2751.777100 
	C1368.005249,2753.436279 1378.919678,2760.801758 1386.165039,2772.898682 
	C1397.187378,2791.301514 1390.037354,2812.656494 1370.198242,2820.909912 
	C1365.981079,2822.664307 1361.254517,2823.405518 1356.682983,2824.032471 
	C1352.752075,2824.571289 1348.707642,2824.339355 1344.713135,2824.349609 
	C1238.830933,2824.622314 1132.948853,2824.903320 1027.066528,2825.100342 
	C1019.087158,2825.115234 1011.022949,2825.140137 1003.142700,2824.082764 
	C982.179077,2821.269531 967.098511,2811.048828 961.935181,2787.574707 
z"/>
<path fill="#000102" opacity="1.000000" stroke="none" 
	d="
M3353.753662,2398.818604 
	C3356.652100,2393.092773 3358.995117,2388.644043 3362.394775,2382.188232 
	C3365.305664,2386.977051 3367.387207,2389.502197 3368.521240,2392.398193 
	C3395.178711,2460.477051 3421.750732,2528.589600 3448.198975,2596.750000 
	C3448.801758,2598.303223 3447.788086,2600.483398 3447.451172,2602.932373 
	C3444.824219,2603.598145 3442.314209,2604.784424 3439.801270,2604.789795 
	C3387.941162,2604.898438 3336.081055,2604.899414 3284.220947,2604.792969 
	C3281.707031,2604.787842 3279.195557,2603.608643 3277.116699,2603.085449 
	C3273.662598,2596.089844 3277.283203,2590.771240 3279.404053,2585.401123 
	C3294.791260,2546.443848 3310.304443,2507.536377 3325.805420,2468.624268 
	C3334.909668,2445.770752 3344.065430,2422.937988 3353.753662,2398.818604 
z"/>
<path fill="#000102" opacity="1.000000" stroke="none" 
	d="
M1869.461182,2499.458496 
	C1863.780029,2498.555420 1859.820190,2498.013672 1855.989502,2496.989258 
	C1854.154541,2496.498535 1852.563965,2495.094238 1850.328491,2493.792725 
	C1849.769043,2490.831299 1848.635620,2487.617432 1848.632690,2484.402588 
	C1848.583618,2430.533203 1848.651489,2376.664062 1848.812134,2322.794922 
	C1848.819702,2320.268555 1849.934082,2317.745117 1850.782593,2314.168213 
	C1855.287720,2313.320801 1859.654785,2311.991211 1864.080322,2311.754150 
	C1883.993408,2310.687744 1903.919800,2309.842773 1923.847900,2309.088623 
	C1943.920776,2308.329102 1963.762573,2310.136475 1982.961304,2316.270508 
	C2016.675781,2327.042725 2035.947266,2349.957031 2041.033325,2385.208252 
	C2043.161377,2399.958496 2042.497192,2414.416992 2039.727051,2428.829590 
	C2034.947144,2453.700684 2021.565186,2472.701904 1999.785034,2485.817871 
	C1980.426514,2497.475586 1959.195679,2502.713867 1936.950439,2502.606934 
	C1915.041138,2502.501709 1893.140137,2500.686279 1869.461182,2499.458496 
z"/>
<path fill="#000102" opacity="1.000000" stroke="none" 
	d="
M2580.360107,2455.732178 
	C2580.796875,2407.920410 2579.413574,2362.034668 2581.241943,2315.456055 
	C2585.701904,2314.075684 2589.291748,2312.159424 2592.976074,2311.956299 
	C2615.570801,2310.710693 2638.179443,2309.580078 2660.798340,2308.952637 
	C2678.870361,2308.451172 2696.717529,2310.777344 2714.030518,2316.111328 
	C2750.221191,2327.260742 2770.601318,2353.072998 2772.852051,2390.690674 
	C2773.368164,2399.313721 2773.436523,2408.031982 2772.819092,2416.642334 
	C2770.495605,2449.036865 2755.261719,2473.219971 2726.404785,2488.717285 
	C2710.204590,2497.417236 2692.767822,2501.468262 2674.708740,2502.524902 
	C2647.373047,2504.124023 2620.179199,2501.129883 2593.023926,2498.370605 
	C2589.840088,2498.047119 2586.793945,2496.366455 2583.278809,2495.178467 
	C2578.263672,2482.821777 2581.164795,2470.078125 2580.360107,2455.732178 
z"/>
</svg>